#N canvas 0 0 1299 1132 10;
#X declare -lib xlab;
#X obj 11 9 declare -lib xlab;
#X obj 219 190 else/note2midi;
#X obj 286 240 else/note2midi;
#X obj 85 263 Libs/x.chord-inter, f 34;
#X msg 286 219 list D#4 Bb4 E5 G5 F#6 Ab6;
#X msg 219 169 list D4 D4;
#X obj 85 286 Libs/midi2note;
#X obj 85 311 bhack.define;
#X obj 10 157 bhack.iterate;
#X obj 10 102 bhack.arithmser 1 6 1;
#X obj 10 56 bng 18 250 50 0 empty empty empty 0 -9 0 10 #fcfcfc #000000 #000000;
#X obj 85 177 bhack.topd;
#X obj 10 349 bhack.collect;
#X obj 85 199 nbx 5 16 -1e+37 1e+37 0 0 empty empty empty 0 -9 0 10 #fcfcfc #000000 #000000 0 256;
#X obj 125 73 t f f;
#X obj 125 52 nbx 5 16 -1e+37 1e+37 0 0 empty empty empty 0 -9 0 10 #fcfcfc #000000 #000000 0 256;
#X obj 10 377 bhack.chords 500 130;
#X connect 1 0 3 2;
#X connect 2 0 3 3;
#X connect 3 0 6 0;
#X connect 4 0 2 0;
#X connect 5 0 1 0;
#X connect 6 0 7 0;
#X connect 7 0 12 1;
#X connect 8 0 12 0;
#X connect 8 1 11 0;
#X connect 9 0 8 0;
#X connect 10 0 9 0;
#X connect 11 0 13 0;
#X connect 12 0 16 0;
#X connect 13 0 3 0;
#X connect 14 0 9 1;
#X connect 14 1 3 1;
#X connect 15 0 14 0;
