#N canvas 0 0 925 1132 10;
#X declare -lib xlab;
#X obj 11 9 declare -lib xlab;
#X obj 18 97 else/note2midi;
#X obj 199 97 else/note2midi;
#X obj 18 179 Libs/x.chord-inter;
#X msg 199 66 list D#4 Bb4 E5 G5 F#6 Ab6;
#X msg 18 66 list D4;
#X msg 55 137 reload;
#X obj 297 171 bhack.nth 1;
#X obj 18 315 bhack.iterate;
#X obj 93 379 bhack.mton 12edo;
#X obj 18 409 bhack.collect;
#X obj 156 241 bhack.nth;
#X connect 1 0 3 0;
#X connect 2 0 3 1;
#X connect 3 0 8 0;
#X connect 4 0 2 0;
#X connect 5 0 1 0;
#X connect 6 0 3 0;
#X connect 8 0 10 0;
#X connect 8 1 9 0;
#X connect 9 0 10 1;
