#N canvas 0 0 1860 1132 10;
#X declare -lib pdlua;
#X declare -lib else;
#X declare -path Libs;
#X obj 8 83 int;
#X obj 8 105 + 1;
#X obj 8 127 nbx 5 16 -1e+37 1e+37 0 0 empty empty empty 0 -9 0 10 #fcfcfc #000000 #000000 0 256;
#N canvas 0 0 925 1132 config 0;
#X obj 19 8 declare -lib pdlua;
#X obj 20 30 declare -lib else;
#X obj 64 87 declare -path Libs;
#X obj 153 30 Libs/luaseed;
#X obj 153 9 r luaseed;
#X connect 4 0 3 0;
#X restore 51 9 pd config;
#X obj 8 172 s time;
#X obj 8 37 tgl 18 0 empty empty empty 0 -9 0 10 #fcfcfc #000000 #000000 0 1;
#X obj 8 9 r init;
#X obj 8 148 t f f, f 12;
#X obj 77 342 Libs/chord1;
#X obj 202 97 r gesture-time;
#X obj 202 119 t b f;
#X obj 202 141 metro;
#X obj 202 163 s new-gesto;
#X obj 192 342 Libs/chord2;
#X obj 104 306 s chordnumber;
#X msg 104 282 1;
#X obj 219 303 s chordnumber;
#X msg 219 279 2;
#X obj 77 260 t f f;
#X obj 192 258 t f f;
#X obj 333 307 s chordnumber;
#X obj 306 262 t f f;
#X msg 333 283 3;
#X obj 306 342 Libs/chord3;
#X obj 530 310 s chordnumber;
#X obj 503 265 t f f;
#X msg 530 286 4;
#X obj 503 342 Libs/chord4;
#X obj 645 309 s chordnumber;
#X obj 618 264 t f f;
#X msg 645 285 5;
#X obj 618 342 Libs/chord5;
#X obj 146 30 nbx 5 16 -1e+37 1e+37 0 0 empty empty empty 0 -9 0 10 #fcfcfc #000000 #000000 0 256;
#X obj 146 8 r chordnumber;
#X obj 760 311 s chordnumber;
#X obj 733 266 t f f;
#X msg 760 287 6;
#X obj 733 342 Libs/chord6;
#X obj 163 98 r fim;
#X msg 163 120 0;
#X obj 8 61 metro 1000;
#X obj 442 310 s chordnumber;
#X obj 415 265 t f f;
#X msg 442 286 30;
#X obj 415 342 Libs/chord3a;
#X obj 689 11 r chordnumber;
#X obj 689 33 change;
#X obj 689 55 sel 1 2 3 4 5 6;
#X msg 689 87 list N E S W;
#X obj 689 159 s point-to-where;
#X obj 801 158 s point-to-where;
#X msg 801 86 list S S S S;
#X obj 563 138 r point-to-where;
#X listbox 563 160 20 0 0 0 - - - 0;
#X obj 689 109 nth-random;
#X obj 801 110 nth-random;
#X text 294 97 5000-7000;
#X obj 77 238 else/spread 60 100 160 210 240 320, f 107;
#X connect 0 0 1 0;
#X connect 1 0 0 1;
#X connect 1 0 2 0;
#X connect 2 0 7 0;
#X connect 5 0 40 0;
#X connect 6 0 5 0;
#X connect 7 0 4 0;
#X connect 7 1 57 0;
#X connect 9 0 10 0;
#X connect 10 0 11 0;
#X connect 10 1 11 1;
#X connect 11 0 12 0;
#X connect 15 0 14 0;
#X connect 17 0 16 0;
#X connect 18 0 8 0;
#X connect 18 1 15 0;
#X connect 19 0 13 0;
#X connect 19 1 17 0;
#X connect 21 0 23 0;
#X connect 21 1 22 0;
#X connect 22 0 20 0;
#X connect 25 0 27 0;
#X connect 25 1 26 0;
#X connect 26 0 24 0;
#X connect 29 0 31 0;
#X connect 29 1 30 0;
#X connect 30 0 28 0;
#X connect 33 0 32 0;
#X connect 35 0 37 0;
#X connect 35 1 36 0;
#X connect 36 0 34 0;
#X connect 38 0 39 0;
#X connect 39 0 11 0;
#X connect 40 0 0 0;
#X connect 42 0 44 0;
#X connect 42 1 43 0;
#X connect 43 0 41 0;
#X connect 45 0 46 0;
#X connect 46 0 47 0;
#X connect 47 0 48 0;
#X connect 47 2 48 0;
#X connect 47 4 48 0;
#X connect 47 6 51 0;
#X connect 48 0 54 0;
#X connect 51 0 55 0;
#X connect 52 0 53 0;
#X connect 54 0 49 0;
#X connect 55 0 50 0;
#X connect 57 0 18 0;
#X connect 57 1 19 0;
#X connect 57 2 21 0;
#X connect 57 3 42 0;
#X connect 57 4 25 0;
#X connect 57 5 29 0;
#X connect 57 6 35 0;
