#N canvas 0 0 925 1132 10;
#X obj 4 514 s note;
#X obj 143 512 s dynamic;
#X obj 283 510 s tipo;
#X listbox 154 487 7 0 0 0 - - - 0;
#X listbox 318 487 7 0 0 0 - - - 0;
#X obj 2 2 inlet;
#X msg 283 412 list longa;
#X obj 4 487 midi2note;
#X obj 143 459 nth-random;
#X obj 283 458 nth-random;
#X obj 2 70 bng 18 250 50 0 empty empty empty 0 -9 0 10 #fcfcfc #000000 #000000;
#X obj 2 115 line;
#X obj 2 137 nbx 5 16 -1e+37 1e+37 0 0 empty empty empty 0 -9 0 10 #fcfcfc #000000 #000000 0 256;
#X obj 2 201 s bar-width;
#X obj 2 24 t f f f, f 37;
#X obj 79 277 x.chord-inter, f 36;
#X obj 292 235 loadbang;
#X obj 221 185 loadbang;
#X obj 79 171 * 20;
#X obj 79 193 int;
#X obj 79 215 nbx 5 16 -1e+37 1e+37 0 0 empty empty empty 0 -9 0 10 #fcfcfc #000000 #000000 0 256;
#X obj 4 361 list;
#X obj 4 227 r new-gesto;
#X obj 4 249 bng 18 250 50 0 empty empty empty 0 -9 0 10 #fcfcfc #000000 #000000;
#X obj 4 383 t a b b, f 47;
#X obj 4 412 x.list-shuffle;
#X obj 4 434 t a a, f 12;
#N canvas 0 0 925 1132 len 0;
#X obj 20 20 inlet;
#X obj 20 52 list length;
#X obj 95 52 r gesture-time;
#X obj 95 74 - 30;
#X obj 26 180 /;
#X obj 80 126 f;
#X obj 20 74 t b f;
#X obj 26 266 s arpejotime;
#X obj 26 202 print;
#X connect 0 0 1 0;
#X connect 1 0 6 0;
#X connect 2 0 3 0;
#X connect 3 0 5 1;
#X connect 4 0 7 0;
#X connect 4 0 8 0;
#X connect 5 0 4 0;
#X connect 6 0 5 0;
#X connect 6 1 4 1;
#X restore 73 464 pd len;
#X msg 2 93 0 \, 1 40000;
#X obj 2 48 sel 60;
#X msg 221 207 64 69 71 79 81;
#X msg 143 413 list mf mf sf f ff;
#X obj 146 301 r chordnumber;
#X obj 4 319 spigot;
#X obj 146 323 expr if($f1 == 2 \, 1 \, 0);
#X msg 292 257 60 65 70 75 78 79 81 86;
#X obj 174 69 r gesture-time;
#X obj 174 117 int;
#X obj 174 95 / 40000;
#X connect 5 0 14 0;
#X connect 6 0 9 0;
#X connect 7 0 0 0;
#X connect 8 0 1 0;
#X connect 8 0 3 0;
#X connect 9 0 2 0;
#X connect 9 0 4 0;
#X connect 10 0 28 0;
#X connect 11 0 12 0;
#X connect 12 0 13 0;
#X connect 12 0 18 0;
#X connect 14 0 29 0;
#X connect 15 0 21 1;
#X connect 16 0 35 0;
#X connect 17 0 30 0;
#X connect 18 0 19 0;
#X connect 19 0 20 0;
#X connect 20 0 15 0;
#X connect 21 0 24 0;
#X connect 22 0 23 0;
#X connect 23 0 33 0;
#X connect 24 0 25 0;
#X connect 24 1 31 0;
#X connect 24 2 6 0;
#X connect 25 0 26 0;
#X connect 26 0 7 0;
#X connect 26 1 27 0;
#X connect 28 0 11 0;
#X connect 29 0 10 0;
#X connect 30 0 15 2;
#X connect 31 0 8 0;
#X connect 32 0 34 0;
#X connect 33 0 21 0;
#X connect 34 0 33 1;
#X connect 35 0 15 3;
#X connect 36 0 38 0;
#X connect 37 0 15 1;
#X connect 37 0 18 1;
#X connect 38 0 37 0;
