#N canvas 0 0 925 1132 10;
#X obj 4 514 s note;
#X obj 194 542 s dynamic;
#X obj 344 541 s tipo;
#X listbox 205 517 7 0 0 0 - - - 0;
#X listbox 379 518 7 0 0 0 - - - 0;
#X obj 2 2 inlet;
#X msg 194 443 list p pp ppp sf;
#X msg 344 443 list longa;
#X obj 4 443 midi2note;
#X obj 194 489 nth-random;
#X obj 344 489 nth-random;
#X obj 2 48 sel 1;
#X obj 2 70 bng 18 250 50 0 empty empty empty 0 -9 0 10 #fcfcfc #000000 #000000;
#X msg 2 93 0 \, 1 60000;
#X obj 2 115 line;
#X obj 2 137 nbx 5 16 -1e+37 1e+37 0 0 empty empty empty 0 -9 0 10 #fcfcfc #000000 #000000 0 256;
#X obj 2 201 s bar-width;
#X obj 2 24 t f f f, f 37;
#X obj 79 307 x.chord-inter, f 36;
#X obj 292 265 loadbang;
#X obj 221 265 loadbang;
#X obj 79 201 * 20;
#X obj 79 223 int;
#X obj 79 245 nbx 5 16 -1e+37 1e+37 0 0 empty empty empty 0 -9 0 10 #fcfcfc #000000 #000000 0 256;
#X msg 292 287 64 69 71 79 81;
#X msg 150 287 20;
#X obj 150 266 loadbang;
#X msg 221 287 list 62;
#X obj 4 361 list;
#X obj 4 307 r new-gesto;
#X obj 4 329 bng 18 250 50 0 empty empty empty 0 -9 0 10 #fcfcfc #000000 #000000;
#X obj 4 383 t a b b, f 26;
#X connect 5 0 17 0;
#X connect 6 0 9 0;
#X connect 7 0 10 0;
#X connect 8 0 0 0;
#X connect 9 0 1 0;
#X connect 9 0 3 0;
#X connect 10 0 2 0;
#X connect 10 0 4 0;
#X connect 11 0 12 0;
#X connect 12 0 13 0;
#X connect 13 0 14 0;
#X connect 14 0 15 0;
#X connect 15 0 16 0;
#X connect 15 0 21 0;
#X connect 17 0 11 0;
#X connect 18 0 28 1;
#X connect 19 0 24 0;
#X connect 20 0 27 0;
#X connect 21 0 22 0;
#X connect 22 0 23 0;
#X connect 23 0 18 0;
#X connect 24 0 18 3;
#X connect 25 0 18 1;
#X connect 26 0 25 0;
#X connect 27 0 18 2;
#X connect 28 0 31 0;
#X connect 29 0 30 0;
#X connect 30 0 28 0;
#X connect 31 0 8 0;
#X connect 31 1 6 0;
#X connect 31 2 7 0;
