#N canvas 0 0 925 1132 10;
#X obj 4 534 s note;
#X obj 143 532 s dynamic;
#X obj 283 530 s tipo;
#X listbox 154 507 7 0 0 0 - - - 0;
#X listbox 318 507 7 0 0 0 - - - 0;
#X obj 2 2 inlet;
#X msg 283 432 list longa;
#X obj 4 507 midi2note;
#X obj 143 479 nth-random;
#X obj 283 478 nth-random;
#X obj 2 90 bng 18 250 50 0 empty empty empty 0 -9 0 10 #fcfcfc #000000 #000000;
#X obj 2 135 line;
#X obj 2 157 nbx 5 16 -1e+37 1e+37 0 0 empty empty empty 0 -9 0 10 #fcfcfc #000000 #000000 0 256;
#X obj 2 221 s bar-width;
#X obj 2 24 t f f f, f 37;
#X obj 79 287 x.chord-inter, f 36;
#X obj 292 245 loadbang;
#X obj 221 195 loadbang;
#X obj 79 203 int;
#X obj 79 225 nbx 5 16 -1e+37 1e+37 0 0 empty empty empty 0 -9 0 10 #fcfcfc #000000 #000000 0 256;
#X obj 4 381 list;
#X obj 4 267 r new-gesto;
#X obj 4 289 bng 18 250 50 0 empty empty empty 0 -9 0 10 #fcfcfc #000000 #000000;
#X obj 4 432 x.list-shuffle;
#X obj 4 454 t a a, f 12;
#N canvas 0 0 925 1132 len 0;
#X obj 20 20 inlet;
#X obj 20 52 list length;
#X obj 95 52 r gesture-time;
#X obj 95 74 - 30;
#X obj 26 180 /;
#X obj 80 126 f;
#X obj 20 74 t b f;
#X obj 26 266 s arpejotime;
#X obj 26 202 print;
#X connect 0 0 1 0;
#X connect 1 0 6 0;
#X connect 2 0 3 0;
#X connect 3 0 5 1;
#X connect 4 0 7 0;
#X connect 4 0 8 0;
#X connect 5 0 4 0;
#X connect 6 0 5 0;
#X connect 6 1 4 1;
#X restore 73 484 pd len;
#X msg 292 267 70 82;
#X obj 162 318 r chordnumber;
#X obj 4 336 spigot;
#X obj 79 181 * 4;
#X obj 2 69 t b b, f 23;
#X obj 174 147 int;
#X obj 162 340 expr if($f1 == 5 \, 1 \, 0);
#X msg 221 217 61 66 69 71 74 75 77 79 80 85;
#X obj 173 51 r gesture-time;
#X obj 173 73 t b f;
#X obj 173 119 /;
#X obj 2 48 sel 240;
#X msg 173 95 80000;
#X msg 2 113 0 \, 1 80000;
#X msg 143 433 list f ff fff;
#X obj 422 445 nth-random;
#X msg 422 412 list N S E O;
#X obj 422 508 s point-to-where;
#X obj 4 403 t a b b b, f 47;
#X connect 5 0 14 0;
#X connect 6 0 9 0;
#X connect 7 0 0 0;
#X connect 8 0 1 0;
#X connect 8 0 3 0;
#X connect 9 0 2 0;
#X connect 9 0 4 0;
#X connect 10 0 39 0;
#X connect 11 0 12 0;
#X connect 12 0 13 0;
#X connect 12 0 29 0;
#X connect 14 0 37 0;
#X connect 15 0 20 1;
#X connect 16 0 26 0;
#X connect 17 0 33 0;
#X connect 18 0 19 0;
#X connect 19 0 15 0;
#X connect 20 0 44 0;
#X connect 21 0 22 0;
#X connect 22 0 28 0;
#X connect 23 0 24 0;
#X connect 24 0 7 0;
#X connect 24 1 25 0;
#X connect 26 0 15 3;
#X connect 27 0 32 0;
#X connect 28 0 20 0;
#X connect 29 0 18 0;
#X connect 30 0 10 0;
#X connect 31 0 29 1;
#X connect 31 0 15 1;
#X connect 32 0 28 1;
#X connect 33 0 15 2;
#X connect 34 0 35 0;
#X connect 35 0 38 0;
#X connect 35 1 36 1;
#X connect 36 0 31 0;
#X connect 37 0 30 0;
#X connect 38 0 36 0;
#X connect 39 0 11 0;
#X connect 40 0 8 0;
#X connect 41 0 43 0;
#X connect 42 0 41 0;
#X connect 44 0 23 0;
#X connect 44 1 40 0;
#X connect 44 2 6 0;
#X connect 44 3 42 0;
