#N canvas 0 0 925 1132 10;
#X obj 4 514 s note;
#X obj 143 512 s dynamic;
#X obj 283 510 s tipo;
#X listbox 154 487 7 0 0 0 - - - 0;
#X listbox 318 487 7 0 0 0 - - - 0;
#X obj 2 2 inlet;
#X msg 283 412 list longa;
#X obj 4 487 midi2note;
#X obj 143 459 nth-random;
#X obj 283 458 nth-random;
#X obj 2 70 bng 18 250 50 0 empty empty empty 0 -9 0 10 #fcfcfc #000000 #000000;
#X obj 2 115 line;
#X obj 2 137 nbx 5 16 -1e+37 1e+37 0 0 empty empty empty 0 -9 0 10 #fcfcfc #000000 #000000 0 256;
#X obj 2 201 s bar-width;
#X obj 2 24 t f f f, f 37;
#X obj 79 247 x.chord-inter, f 36;
#X obj 292 205 loadbang;
#X obj 221 205 loadbang;
#X obj 79 163 int;
#X obj 79 185 nbx 5 16 -1e+37 1e+37 0 0 empty empty empty 0 -9 0 10 #fcfcfc #000000 #000000 0 256;
#X msg 292 227 64 69 71 79 81;
#X obj 4 361 list;
#X obj 4 247 r new-gesto;
#X obj 4 269 bng 18 250 50 0 empty empty empty 0 -9 0 10 #fcfcfc #000000 #000000;
#X obj 4 412 x.list-shuffle;
#X obj 4 434 t a a, f 12;
#N canvas 0 0 925 1132 len 0;
#X obj 20 20 inlet;
#X obj 20 52 list length;
#X obj 95 52 r gesture-time;
#X obj 95 74 - 30;
#X obj 26 180 /;
#X obj 80 126 f;
#X obj 20 74 t b f;
#X obj 26 266 s arpejotime;
#X connect 0 0 1 0;
#X connect 1 0 6 0;
#X connect 2 0 3 0;
#X connect 3 0 5 1;
#X connect 4 0 7 0;
#X connect 5 0 4 0;
#X connect 6 0 5 0;
#X connect 6 1 4 1;
#X restore 73 464 pd len;
#X obj 79 141 * 10;
#X obj 2 48 sel 1;
#X msg 2 93 0 \, 1 59000;
#X obj 90 274 r chordnumber;
#X obj 90 296 expr if($f1 == 1 \, 1 \, 0);
#X obj 4 330 spigot;
#X msg 221 227 list 62 62;
#X obj 174 117 int;
#X obj 174 140 nbx 5 16 -1e+37 1e+37 0 0 empty empty empty 0 -9 0 10 #fcfcfc #000000 #000000 0 256;
#X msg 143 413 list p pp ppp;
#X obj 231 24 r gesture-time;
#X obj 231 46 t b f;
#X obj 231 92 /;
#X msg 231 68 60000;
#X obj 422 445 nth-random;
#X obj 4 383 t a b b b, f 70;
#X msg 422 412 list N S E O;
#X obj 422 508 s point-to-where;
#X connect 5 0 14 0;
#X connect 6 0 9 0;
#X connect 7 0 0 0;
#X connect 8 0 1 0;
#X connect 8 0 3 0;
#X connect 9 0 2 0;
#X connect 9 0 4 0;
#X connect 10 0 29 0;
#X connect 10 0 32 0;
#X connect 11 0 12 0;
#X connect 12 0 13 0;
#X connect 12 0 27 0;
#X connect 14 0 28 0;
#X connect 15 0 21 1;
#X connect 16 0 20 0;
#X connect 17 0 33 0;
#X connect 18 0 19 0;
#X connect 19 0 15 0;
#X connect 20 0 15 3;
#X connect 21 0 42 0;
#X connect 22 0 23 0;
#X connect 23 0 32 0;
#X connect 24 0 25 0;
#X connect 25 0 7 0;
#X connect 25 1 26 0;
#X connect 27 0 18 0;
#X connect 28 0 10 0;
#X connect 29 0 11 0;
#X connect 30 0 31 0;
#X connect 31 0 32 1;
#X connect 32 0 21 0;
#X connect 33 0 15 2;
#X connect 34 0 15 1;
#X connect 34 0 27 1;
#X connect 34 0 35 0;
#X connect 36 0 8 0;
#X connect 37 0 38 0;
#X connect 38 0 40 0;
#X connect 38 1 39 1;
#X connect 39 0 34 0;
#X connect 40 0 39 0;
#X connect 41 0 44 0;
#X connect 42 0 24 0;
#X connect 42 1 36 0;
#X connect 42 2 6 0;
#X connect 42 3 43 0;
#X connect 43 0 41 0;
