#N canvas 0 0 925 1132 10;
#X obj 4 704 s note;
#X obj 143 702 s dynamic;
#X obj 283 700 s tipo;
#X listbox 154 677 7 0 0 0 - - - 0;
#X listbox 318 677 7 0 0 0 - - - 0;
#X obj 2 2 inlet;
#X msg 283 602 list longa;
#X obj 4 677 midi2note;
#X obj 143 649 nth-random;
#X obj 283 648 nth-random;
#X obj 2 70 bng 18 250 50 0 empty empty empty 0 -9 0 10 #fcfcfc #000000 #000000;
#X obj 2 115 line;
#X obj 2 137 nbx 5 16 -1e+37 1e+37 0 0 empty empty empty 0 -9 0 10 #fcfcfc #000000 #000000 0 256;
#X obj 2 201 s bar-width;
#X obj 2 24 t f f f, f 37;
#X obj 79 247 x.chord-inter, f 36;
#X obj 292 205 loadbang;
#X obj 221 155 loadbang;
#X obj 79 163 int;
#X obj 79 185 nbx 5 16 -1e+37 1e+37 0 0 empty empty empty 0 -9 0 10 #fcfcfc #000000 #000000 0 256;
#X obj 4 491 list;
#X obj 4 247 r new-gesto;
#X obj 4 269 bng 18 250 50 0 empty empty empty 0 -9 0 10 #fcfcfc #000000 #000000;
#X obj 4 602 x.list-shuffle;
#X obj 4 624 t a a, f 12;
#N canvas 0 0 925 1132 len 0;
#X obj 20 20 inlet;
#X obj 20 52 list length;
#X obj 95 52 r gesture-time;
#X obj 95 74 - 30;
#X obj 26 180 /;
#X obj 80 126 f;
#X obj 20 74 t b f;
#X obj 26 266 s arpejotime;
#X connect 0 0 1 0;
#X connect 1 0 6 0;
#X connect 2 0 3 0;
#X connect 3 0 5 1;
#X connect 4 0 7 0;
#X connect 5 0 4 0;
#X connect 6 0 5 0;
#X connect 6 1 4 1;
#X restore 73 654 pd len;
#X obj 79 141 * 1;
#X obj 140 270 r chordnumber;
#X obj 4 388 spigot;
#X obj 150 95 int;
#X obj 292 46 r gesture-time;
#X obj 292 68 t b f;
#X obj 292 114 /;
#X obj 2 48 sel 160;
#X obj 140 292 expr if($f1 == 30 \, 1 \, 0);
#X obj 4 573 t a b b b, f 47;
#X obj 4 443 t b b, f 12;
#X msg 143 603 list mf mf f f f ff;
#X obj 310 303 loadbang;
#X msg 310 325 1;
#X obj 140 347 spigot;
#X msg 73 463 0;
#X obj 73 485 t f f b;
#X obj 298 508 s chordnumber;
#X msg 274 452 30;
#X msg 292 90 50000;
#X msg 2 93 0 \, 1 50000;
#X msg 292 227 61 66 69 71 74 75 77 79 80 85;
#X msg 221 177 61 66 69 71 74 75 77 79 80 85;
#X connect 5 0 14 0;
#X connect 6 0 9 0;
#X connect 7 0 0 0;
#X connect 8 0 1 0;
#X connect 8 0 3 0;
#X connect 9 0 2 0;
#X connect 9 0 4 0;
#X connect 10 0 46 0;
#X connect 11 0 12 0;
#X connect 12 0 13 0;
#X connect 12 0 26 0;
#X connect 14 0 33 0;
#X connect 15 0 20 1;
#X connect 16 0 47 0;
#X connect 17 0 48 0;
#X connect 18 0 19 0;
#X connect 19 0 15 0;
#X connect 20 0 35 0;
#X connect 21 0 22 0;
#X connect 22 0 28 0;
#X connect 23 0 24 0;
#X connect 24 0 7 0;
#X connect 24 1 25 0;
#X connect 26 0 18 0;
#X connect 27 0 34 0;
#X connect 28 0 36 0;
#X connect 29 0 15 1;
#X connect 29 0 26 1;
#X connect 30 0 31 0;
#X connect 31 0 45 0;
#X connect 31 1 32 1;
#X connect 32 0 29 0;
#X connect 33 0 10 0;
#X connect 34 0 40 0;
#X connect 35 0 23 0;
#X connect 35 1 37 0;
#X connect 35 2 6 0;
#X connect 36 0 20 0;
#X connect 36 1 41 0;
#X connect 37 0 8 0;
#X connect 38 0 39 0;
#X connect 39 0 40 1;
#X connect 40 0 28 1;
#X connect 41 0 42 0;
#X connect 42 0 28 1;
#X connect 42 1 40 1;
#X connect 42 2 44 0;
#X connect 44 0 43 0;
#X connect 45 0 32 0;
#X connect 46 0 11 0;
#X connect 47 0 15 3;
#X connect 48 0 15 2;
