#N canvas 0 0 1860 1132 10; 
#X declare -lib pdlua; 
#X declare -lib else; 
#X declare -path Libs; 
#X obj 8 83 int; 
#X obj 8 105 + 1; 
#X obj 8 127 nbx 5 16 -1e+37 1e+37 0 0 empty empty empty 0 -9 0 10 #fcfcfc #000000 #000000 0 256; 
#N canvas 0 0 925 1132 config 0; 
#X obj 19 8 declare -lib pdlua; 
#X obj 20 30 declare -lib else; 
#X obj 64 87 declare -path Libs; 
#X restore 51 9 pd config; 
#X obj 8 172 s time; 
#X obj 8 37 tgl 18 0 empty empty empty 0 -9 0 10 #fcfcfc #000000 #000000 0 1; 
#X obj 8 9 r init; 
#X obj 8 148 t f f, f 12; 
#X obj 5 454 r note; 
#X listbox 5 475 35 0 0 0 - - - 0; 
#X listbox 4 419 35 0 0 0 - - - 0; 
#X obj 4 398 r dynamic; 
#X listbox 4 526 10 0 0 0 - - - 0; 
#X obj 4 505 r tipo; 
#X text 73 61 TIPOS: longa \, arpejo \, trilo; 
#X obj 694 399 r bar-width; 
#X obj 753 441 loadbang; 
#X obj 753 463 metro 50; 
#X obj 679 504 f; 
#X obj 679 526 s bar; 
#X obj 694 421 nbx 5 16 -1e+37 1e+37 0 0 empty empty empty 0 -9 0 10 #fcfcfc #000000 #000000 0 256; 
#N canvas 0 0 925 1132 teste 0; 
#X restore 335 80 pd teste; 
#X obj 77 335 chord1; 
#X obj 199 96 r gesture-time; 
#X obj 199 118 t b f; 
#X obj 199 140 metro; 
#X obj 199 162 s new-gesto; 
#X obj 192 335 chord2; 
#X obj 339 175 s gesture-time; 
#X obj 694 442 * 100; 
#X obj 104 306 s chordnumber; 
#X msg 104 282 1; 
#X obj 219 303 s chordnumber; 
#X msg 219 279 2; 
#X listbox 253 412 25 0 0 0 - - - 0; 
#X obj 253 391 r arpejotime; 
#X obj 77 260 t f f; 
#X obj 192 258 t f f; 
#X obj 333 307 s chordnumber; 
#X obj 306 262 t f f; 
#X msg 333 283 3; 
#X obj 306 339 chord3; 
#X obj 530 310 s chordnumber; 
#X obj 503 265 t f f; 
#X msg 530 286 4; 
#X obj 503 342 chord4; 
#X obj 645 309 s chordnumber; 
#X obj 618 264 t f f; 
#X msg 645 285 5; 
#X obj 618 341 chord5; 
#X obj 489 66 nbx 5 16 -1e+37 1e+37 0 0 empty empty empty 0 -9 0 10 #fcfcfc #000000 #000000 0 256; 
#X obj 489 34 r chordnumber; 
#X obj 113 30 luaseed; 
#X obj 113 9 r luaseed; 
#X obj 760 311 s chordnumber; 
#X obj 733 266 t f f; 
#X msg 760 287 6; 
#X obj 733 343 chord6; 
#X msg 339 150 10000; 
#X obj 470 438 r fim; 
#X obj 470 460 t b b b; 
#X obj 470 528 s init 0; 
#X obj 490 498 s init 0; 
#X obj 127 111 r fim; 
#X msg 127 133 0; 
#X obj 8 61 metro 1000; 
#X obj 694 464 nbx 5 16 -1e+37 1e+37 0 0 empty empty empty 0 -9 0 10 #fcfcfc #000000 #000000 0 256; 
#X obj 77 238 spread 60 100 180 220 240 320, f 107; 
#X obj 442 310 s chordnumber; 
#X obj 415 265 t f f; 
#X msg 442 286 30; 
#X obj 415 342 chord3a; 
#X obj 611 50 r chordnumber; 
#X obj 611 72 change; 
#X obj 611 94 sel 1 2 3 4 5 6; 
#X msg 611 126 list N E S W; 
#X obj 611 198 s point-to-where; 
#X obj 723 197 s point-to-where; 
#X msg 723 125 list S S S S; 
#X obj 467 153 r point-to-where; 
#X listbox 467 175 20 0 0 0 - - - 0; 
#X obj 611 148 nth-random; 
#X obj 723 149 nth-random; 
#X connect 0 0 1 0; 
#X connect 1 0 0 1; 
#X connect 1 0 2 0; 
#X connect 2 0 7 0; 
#X connect 5 0 65 0; 
#X connect 6 0 5 0; 
#X connect 7 0 4 0; 
#X connect 7 1 67 0; 
#X connect 8 0 9 0; 
#X connect 11 0 10 0; 
#X connect 13 0 12 0; 
#X connect 15 0 20 0; 
#X connect 16 0 17 0; 
#X connect 17 0 18 0; 
#X connect 18 0 19 0; 
#X connect 20 0 29 0; 
#X connect 23 0 24 0; 
#X connect 24 0 25 0; 
#X connect 24 1 25 1; 
#X connect 25 0 26 0; 
#X connect 29 0 18 1; 
#X connect 29 0 66 0; 
#X connect 31 0 30 0; 
#X connect 33 0 32 0; 
#X connect 35 0 34 0; 
#X connect 36 0 22 0; 
#X connect 36 1 31 0; 
#X connect 37 0 27 0; 
#X connect 37 1 33 0; 
#X connect 39 0 41 0; 
#X connect 39 1 40 0; 
#X connect 40 0 38 0; 
#X connect 43 0 45 0; 
#X connect 43 1 44 0; 
#X connect 44 0 42 0; 
#X connect 47 0 49 0; 
#X connect 47 1 48 0; 
#X connect 48 0 46 0; 
#X connect 51 0 50 0; 
#X connect 53 0 52 0; 
#X connect 55 0 57 0; 
#X connect 55 1 56 0; 
#X connect 56 0 54 0; 
#X connect 58 0 28 0; 
#X connect 59 0 60 0; 
#X connect 60 0 61 0; 
#X connect 63 0 64 0; 
#X connect 64 0 25 0; 
#X connect 65 0 0 0; 
#X connect 67 0 36 0; 
#X connect 67 1 37 0; 
#X connect 67 2 39 0; 
#X connect 67 3 69 0; 
#X connect 67 4 43 0; 
#X connect 67 5 47 0; 
#X connect 67 6 55 0; 
#X connect 69 0 71 0; 
#X connect 69 1 70 0; 
#X connect 70 0 68 0; 
#X connect 72 0 73 0; 
#X connect 73 0 74 0; 
#X connect 74 0 75 0; 
#X connect 74 2 75 0; 
#X connect 74 4 75 0; 
#X connect 74 6 78 0; 
#X connect 75 0 81 0; 
#X connect 78 0 82 0; 
#X connect 79 0 80 0; 
#X connect 81 0 76 0; 
#X connect 82 0 77 0; 
