#N canvas 0 0 1860 1132 10; 
#X declare -lib pdlua; 
#X declare -lib else; 
#X declare -path Libs; 
#X obj 8 61 metro 1000; 
#X obj 8 83 int; 
#X obj 8 105 + 1; 
#X obj 8 127 nbx 5 16 -1e+37 1e+37 0 0 empty empty empty 0 -9 0 10 #fcfcfc #000000 #000000 0 256; 
#N canvas 0 0 925 1132 config 0; 
#X obj 19 8 declare -lib pdlua; 
#X obj 20 30 declare -lib else; 
#X obj 64 87 declare -path Libs; 
#X restore 51 9 pd config; 
#X obj 8 172 s time; 
#X obj 8 37 tgl 18 0 empty empty empty 0 -9 0 10 #fcfcfc #000000 #000000 0 1; 
#X obj 8 9 r init; 
#X obj 8 148 t f f, f 12; 
#X obj 5 454 r note; 
#X listbox 5 475 35 0 0 0 - - - 0; 
#X listbox 4 419 35 0 0 0 - - - 0; 
#X obj 4 398 r dynamic; 
#X listbox 4 526 10 0 0 0 - - - 0; 
#X obj 4 505 r tipo; 
#X text 73 61 TIPOS: longa \, arpejo \, trilo; 
#X obj 284 379 r bar-width; 
#X obj 350 413 loadbang; 
#X obj 350 435 metro 50; 
#X obj 269 484 f; 
#X obj 269 506 s bar; 
#X obj 284 401 nbx 5 16 -1e+37 1e+37 0 0 empty empty empty 0 -9 0 10 #fcfcfc #000000 #000000 0 256; 
#N canvas 0 0 925 1132 teste 0; 
#X restore 335 80 pd teste; 
#X obj 77 238 spread 60 100 180 240 320, f 91; 
#X obj 77 315 chord1; 
#X obj 199 96 r gesture-time; 
#X obj 199 118 t b f; 
#X obj 199 140 metro; 
#X obj 199 162 s new-gesto; 
#X obj 186 315 chord2; 
#X obj 294 316 chord3; 
#X obj 511 314 chord5; 
#X obj 403 315 chord4; 
#X obj 339 175 s gesture-time; 
#X msg 346 134 10000; 
#X obj 284 422 * 100; 
#X obj 100 286 s chordnumber; 
#X msg 100 262 1; 
#X obj 207 283 s chordnumber; 
#X msg 207 259 2; 
#X obj 308 282 s chordnumber; 
#X msg 308 258 3; 
#X obj 420 282 s chordnumber; 
#X msg 420 258 4; 
#X obj 535 283 s chordnumber; 
#X msg 535 259 5; 
#X connect 0 0 1 0; 
#X connect 1 0 2 0; 
#X connect 2 0 1 1; 
#X connect 2 0 3 0; 
#X connect 3 0 8 0; 
#X connect 6 0 0 0; 
#X connect 7 0 6 0; 
#X connect 8 0 5 0; 
#X connect 8 1 23 0; 
#X connect 9 0 10 0; 
#X connect 12 0 11 0; 
#X connect 14 0 13 0; 
#X connect 16 0 21 0; 
#X connect 17 0 18 0; 
#X connect 18 0 19 0; 
#X connect 19 0 20 0; 
#X connect 21 0 35 0; 
#X connect 23 0 24 0; 
#X connect 23 0 37 0; 
#X connect 23 1 29 0; 
#X connect 23 1 39 0; 
#X connect 23 2 30 0; 
#X connect 23 2 41 0; 
#X connect 23 3 32 0; 
#X connect 23 3 43 0; 
#X connect 23 4 31 0; 
#X connect 23 4 45 0; 
#X connect 25 0 26 0; 
#X connect 26 0 27 0; 
#X connect 26 1 27 1; 
#X connect 27 0 28 0; 
#X connect 34 0 33 0; 
#X connect 35 0 19 1; 
#X connect 37 0 36 0; 
#X connect 39 0 38 0; 
#X connect 41 0 40 0; 
#X connect 43 0 42 0; 
#X connect 45 0 44 0; 
